<?xml version="1.0" encoding="utf-8"?>
<svg xmlns="http://www.w3.org/2000/svg" viewBox="0 0 308.49 308.49">
    <g id="Capa_17" data-name="Capa 17">
        <g id="Group_118" data-name="Group 118">
            <g id="Group_29" data-name="Group 29">
                <path id="Path_184" data-name="Path 184" class="cls-1" d="M203.22,155.24,82.59,34.67A7.26,7.26,0,0,0,72.34,44.94L187.83,160.42,72.41,275.84a7.21,7.21,0,0,0-.07,10.2l.07.07a7.23,7.23,0,0,0,5.07,2.16,7,7,0,0,0,5.11-2.18L203.16,165.42a7.11,7.11,0,0,0,.18-10.06Z"/>
                <path class="cls-1" d="M77.51,293.27h0a12.27,12.27,0,0,1-8.58-21L180.76,160.42,68.81,48.47l-.12-.12a12.3,12.3,0,0,1,0-16.71A12.26,12.26,0,0,1,86,31a1.59,1.59,0,0,1,.13.13L206.75,151.7h0l.17.16a12.13,12.13,0,0,1-.29,17.16L86.17,289.59A12.09,12.09,0,0,1,77.51,293.27ZM76,41.48l115.4,115.41a5,5,0,0,1,0,7.07L75.94,279.38a2.21,2.21,0,0,0,0,3.15,2.26,2.26,0,0,0,1.65.74h0a2,2,0,0,0,1.42-.62l.09-.09L199.62,161.89a2.14,2.14,0,0,0,.12-3.06L79.14,38.29a2.26,2.26,0,0,0-1.57-.56,2.21,2.21,0,0,0-1.57.72A2.27,2.27,0,0,0,76,41.48Z"/>
            </g>
        </g>
    </g>
</svg>
