<?xml version="1.0" encoding="utf-8"?>
<svg version="1.1" id="Layer_1" xmlns="http://www.w3.org/2000/svg" xmlns:xlink="http://www.w3.org/1999/xlink" x="0px"
	y="0px" viewBox="0 0 250 250" style="enable-background:new 0 0 250 250;" xml:space="preserve">
	<g>
		<g>
			<path class="st0" d="M125.5,18.8C67.5,18.8,20.2,66,20.2,124.1s47.3,105.4,105.4,105.4s105.4-47.3,105.4-105.4
			S183.6,18.8,125.5,18.8z M143.1,190c0,2.4-2,4.4-4.4,4.4h-26.3c-2.4,0-4.4-2-4.4-4.4v-65.8h-4.4c-2.4,0-4.4-2-4.4-4.4v-17.6
			c0-2.4,2-4.4,4.4-4.4h35.1c2.4,0,4.4,2,4.4,4.4V190z M125.5,89c-9.7,0-17.6-7.9-17.6-17.6s7.9-17.6,17.6-17.6s17.6,7.9,17.6,17.6
			S135.2,89,125.5,89z" />
		</g>
	</g>
</svg>